<?xml version="1.0" encoding="UTF-8"?>
<!DOCTYPE svg PUBLIC "-//W3C//DTD SVG 1.1//EN" "http://www.w3.org/Graphics/SVG/1.1/DTD/svg11.dtd">
<svg xmlns="http://www.w3.org/2000/svg" version="1.1" width="1139px" height="138px" style="shape-rendering:geometricPrecision; text-rendering:geometricPrecision; image-rendering:optimizeQuality; fill-rule:evenodd; clip-rule:evenodd" xmlns:xlink="http://www.w3.org/1999/xlink">
<g><path style="opacity:0.891" fill="#fefffe" d="M 303.5,16.5 C 313.974,14.8142 318.807,19.1475 318,29.5C 314.599,36.2827 309.433,38.1161 302.5,35C 298.741,31.2566 297.574,26.7566 299,21.5C 300.059,19.3408 301.559,17.6741 303.5,16.5 Z"/></g>
<g><path style="opacity:0.94" fill="#fefffe" d="M 61.5,18.5 C 67.1667,18.5 72.8333,18.5 78.5,18.5C 78.3336,27.1731 78.5002,35.8397 79,44.5C 88.6065,39.0405 98.1065,39.2071 107.5,45C 111.257,48.4212 113.757,52.5879 115,57.5C 115.5,70.8292 115.667,84.1625 115.5,97.5C 109.833,97.5 104.167,97.5 98.5,97.5C 98.6665,86.1618 98.4999,74.8284 98,63.5C 94.6873,56.2853 89.5206,54.4519 82.5,58C 80.9512,59.214 79.7845,60.714 79,62.5C 78.5001,74.1619 78.3335,85.8286 78.5,97.5C 72.8333,97.5 67.1667,97.5 61.5,97.5C 61.5,71.1667 61.5,44.8333 61.5,18.5 Z"/></g>
<g><path style="opacity:0.94" fill="#fefffe" d="M 195.5,18.5 C 201.167,18.5 206.833,18.5 212.5,18.5C 212.334,27.1731 212.5,35.8397 213,44.5C 222.607,39.0405 232.107,39.2071 241.5,45C 245.257,48.4212 247.757,52.5879 249,57.5C 249.5,70.8292 249.667,84.1625 249.5,97.5C 243.833,97.5 238.167,97.5 232.5,97.5C 232.667,86.1618 232.5,74.8284 232,63.5C 228.687,56.2853 223.521,54.4519 216.5,58C 214.951,59.214 213.785,60.714 213,62.5C 212.5,74.1619 212.333,85.8286 212.5,97.5C 206.833,97.5 201.167,97.5 195.5,97.5C 195.5,71.1667 195.5,44.8333 195.5,18.5 Z"/></g>
<g><path style="opacity:0.889" fill="#fefffe" d="M 530.5,18.5 C 534.167,18.5 537.833,18.5 541.5,18.5C 541.334,28.1724 541.5,37.8391 542,47.5C 550.271,40.6494 559.437,39.1494 569.5,43C 575.82,45.986 579.987,50.8193 582,57.5C 582.5,70.8292 582.667,84.1625 582.5,97.5C 579.167,97.5 575.833,97.5 572.5,97.5C 572.898,84.7808 572.398,72.1142 571,59.5C 564.629,49.7901 556.463,47.9568 546.5,54C 544.57,56.2583 543.07,58.7583 542,61.5C 541.5,73.4954 541.333,85.4954 541.5,97.5C 537.833,97.5 534.167,97.5 530.5,97.5C 530.5,71.1667 530.5,44.8333 530.5,18.5 Z"/></g>
<g><path style="opacity:0.928" fill="#fefffe" d="M 148.5,40.5 C 166.245,38.4368 177.745,45.7701 183,62.5C 183.5,74.1619 183.667,85.8286 183.5,97.5C 177.833,97.5 172.167,97.5 166.5,97.5C 166.663,95.1432 166.497,92.8098 166,90.5C 158.184,98.7106 149.018,100.544 138.5,96C 127.217,88.5051 122.717,78.0051 125,64.5C 127.68,51.3206 135.514,43.3206 148.5,40.5 Z M 153.5,55.5 C 164.889,58.7625 168.389,66.0958 164,77.5C 157.949,84.8658 151.615,85.1991 145,78.5C 139.54,67.4623 142.373,59.7956 153.5,55.5 Z"/></g>
<g><path style="opacity:0.928" fill="#fefffe" d="M 349.5,40.5 C 367.245,38.4368 378.745,45.7701 384,62.5C 384.5,74.1619 384.667,85.8286 384.5,97.5C 378.833,97.5 373.167,97.5 367.5,97.5C 367.663,95.1432 367.497,92.8098 367,90.5C 359.184,98.7106 350.018,100.544 339.5,96C 328.217,88.5051 323.717,78.0051 326,64.5C 328.68,51.3206 336.514,43.3206 349.5,40.5 Z M 354.5,55.5 C 365.889,58.7625 369.389,66.0958 365,77.5C 358.949,84.8658 352.615,85.1991 346,78.5C 340.54,67.4623 343.373,59.7956 354.5,55.5 Z"/></g>
<g><path style="opacity:0.89" fill="#fefffe" d="M 485.5,40.5 C 503.296,39.8079 513.796,48.1412 517,65.5C 517.667,78.5 517.667,91.5 517,104.5C 516.066,111.436 512.233,115.936 505.5,118C 494.172,118.5 482.838,118.667 471.5,118.5C 471.5,115.5 471.5,112.5 471.5,109.5C 480.839,109.666 490.173,109.5 499.5,109C 502.893,108.606 505.06,106.773 506,103.5C 506.667,98.5 506.667,93.5 506,88.5C 496.283,98.3338 485.116,100.167 472.5,94C 459.726,82.1223 457.226,68.289 465,52.5C 470.144,45.5149 476.977,41.5149 485.5,40.5 Z M 484.5,50.5 C 497.751,49.5818 505.084,55.7485 506.5,69C 504.917,83.7752 496.917,89.7752 482.5,87C 475.405,83.3896 471.738,77.5562 471.5,69.5C 471.661,60.1437 475.994,53.8103 484.5,50.5 Z"/></g>
<g><path style="opacity:0.882" fill="#fefffe" d="M 620.5,40.5 C 636.92,40.1051 647.087,47.7718 651,63.5C 651.5,74.8284 651.667,86.1618 651.5,97.5C 647.833,97.5 644.167,97.5 640.5,97.5C 640.665,94.4816 640.498,91.4816 640,88.5C 630.081,99.4309 618.581,101.264 605.5,94C 593.24,81.2528 591.407,67.0861 600,51.5C 605.587,45.2927 612.421,41.626 620.5,40.5 Z M 618.5,50.5 C 636.384,50.9013 643.217,59.9013 639,77.5C 633.332,88.6889 624.832,91.5222 613.5,86C 602.921,75.0329 602.921,64.0329 613.5,53C 615.315,52.2432 616.981,51.4098 618.5,50.5 Z"/></g>
<g><path style="opacity:0.878" fill="#fefffe" d="M 742.5,40.5 C 763.257,41.6021 772.591,52.6021 770.5,73.5C 757.167,73.5 743.833,73.5 730.5,73.5C 731.399,79.5704 734.732,83.737 740.5,86C 748.08,87.3961 755.747,87.8961 763.5,87.5C 763.5,90.8333 763.5,94.1667 763.5,97.5C 754.386,97.7065 745.386,96.8732 736.5,95C 721.028,87.9559 715.528,76.1225 720,59.5C 723.718,48.5741 731.218,42.2408 742.5,40.5 Z M 740.5,50.5 C 752.387,48.5985 758.721,53.5985 759.5,65.5C 749.833,65.5 740.167,65.5 730.5,65.5C 731.102,58.6159 734.436,53.6159 740.5,50.5 Z"/></g>
<g><path style="opacity:0.888" fill="#fefffe" d="M 803.5,40.5 C 812.813,39.8777 820.313,43.2111 826,50.5C 830.704,43.8965 837.204,40.5632 845.5,40.5C 857.377,40.6798 865.211,46.3464 869,57.5C 869.5,70.8292 869.667,84.1625 869.5,97.5C 866.167,97.5 862.833,97.5 859.5,97.5C 859.901,84.4479 859.401,71.4479 858,58.5C 851.104,49.0547 843.104,48.0547 834,55.5C 833.333,56.8333 832.667,58.1667 832,59.5C 831.5,72.1623 831.333,84.8289 831.5,97.5C 827.833,97.5 824.167,97.5 820.5,97.5C 820.667,85.4954 820.5,73.4954 820,61.5C 815.444,50.4696 807.944,47.8029 797.5,53.5C 795.378,55.4513 793.878,57.7846 793,60.5C 792.5,72.8288 792.333,85.1622 792.5,97.5C 788.833,97.5 785.167,97.5 781.5,97.5C 781.071,83.4406 781.571,69.4406 783,55.5C 787.146,46.6901 793.979,41.6901 803.5,40.5 Z"/></g>
<g><path style="opacity:0.886" fill="#fefffe" d="M 908.5,40.5 C 931.83,41.7768 941.997,54.1101 939,77.5C 933.829,94.172 922.662,100.672 905.5,97C 901.138,95.6283 897.638,93.1283 895,89.5C 894.5,99.828 894.334,110.161 894.5,120.5C 890.833,120.5 887.167,120.5 883.5,120.5C 883.047,99.7795 883.547,79.1128 885,58.5C 889.488,48.0184 897.322,42.0184 908.5,40.5 Z M 906.5,50.5 C 917.227,49.1076 924.393,53.441 928,63.5C 930.429,82.7422 922.262,90.5755 903.5,87C 894.613,80.1307 892.113,71.2974 896,60.5C 898.409,55.9217 901.909,52.5883 906.5,50.5 Z"/></g>
<g><path style="opacity:0.883" fill="#fefffe" d="M 974.5,40.5 C 999.018,42.1809 1009.18,55.1809 1005,79.5C 996.67,96.2831 983.504,101.783 965.5,96C 950.244,87.2447 945.41,74.4114 951,57.5C 955.938,47.7157 963.771,42.049 974.5,40.5 Z M 972.5,50.5 C 986.746,49.2468 994.413,55.7468 995.5,70C 993.407,85.7136 984.74,91.3803 969.5,87C 959.767,79.9096 957.267,70.7429 962,59.5C 964.505,55.1888 968.005,52.1888 972.5,50.5 Z"/></g>
<g><path style="opacity:0.925" fill="#fefffe" d="M 17.5,41.5 C 27.5,41.5 37.5,41.5 47.5,41.5C 47.5,46.1667 47.5,50.8333 47.5,55.5C 39.4931,55.3336 31.4931,55.5003 23.5,56C 20.6537,56.8793 19.987,58.5459 21.5,61C 28.2299,61.1701 34.8966,61.8368 41.5,63C 48.8432,65.6549 52.5098,70.9882 52.5,79C 51.8462,90.3205 45.8462,96.3205 34.5,97C 24.8391,97.4998 15.1724,97.6665 5.5,97.5C 5.5,92.8333 5.5,88.1667 5.5,83.5C 14.1731,83.6664 22.8397,83.4998 31.5,83C 36.1541,81.4218 36.4874,79.4218 32.5,77C 25.7536,76.8787 19.087,76.212 12.5,75C 8.33333,73.5 5.5,70.6667 4,66.5C 0.770286,53.6467 5.27029,45.3134 17.5,41.5 Z"/></g>
<g><path style="opacity:0.892" fill="#fefffe" d="M 275.5,41.5 C 281.5,41.5 287.5,41.5 293.5,41.5C 293.5,46.5 293.5,51.5 293.5,56.5C 288.57,56.1975 283.737,56.5308 279,57.5C 278.5,70.8292 278.333,84.1625 278.5,97.5C 272.5,97.5 266.5,97.5 260.5,97.5C 260.063,81.7757 260.563,66.1091 262,50.5C 264.873,44.8285 269.373,41.8285 275.5,41.5 Z"/></g>
<g><path style="opacity:0.941" fill="#fefffe" d="M 299.5,41.5 C 305.167,41.5 310.833,41.5 316.5,41.5C 316.5,60.1667 316.5,78.8333 316.5,97.5C 310.833,97.5 305.167,97.5 299.5,97.5C 299.5,78.8333 299.5,60.1667 299.5,41.5 Z"/></g>
<g><path style="opacity:0.892" fill="#fefffe" d="M 409.5,41.5 C 415.5,41.5 421.5,41.5 427.5,41.5C 427.5,46.5 427.5,51.5 427.5,56.5C 422.57,56.1975 417.737,56.5308 413,57.5C 412.5,70.8292 412.333,84.1625 412.5,97.5C 406.5,97.5 400.5,97.5 394.5,97.5C 394.063,81.7757 394.563,66.1091 396,50.5C 398.873,44.8285 403.373,41.8285 409.5,41.5 Z"/></g>
<g><path style="opacity:0.883" fill="#fefffe" d="M 673.5,42.5 C 683.833,42.5 694.167,42.5 704.5,42.5C 704.5,45.5 704.5,48.5 704.5,51.5C 695.827,51.3336 687.16,51.5002 678.5,52C 672.888,55.416 672.555,59.0827 677.5,63C 683.5,63.3333 689.5,63.6667 695.5,64C 704.869,64.8963 709.535,70.063 709.5,79.5C 709.637,87.5307 705.97,93.0307 698.5,96C 687.215,97.3555 675.881,97.8555 664.5,97.5C 664.5,94.1667 664.5,90.8333 664.5,87.5C 674.506,87.6665 684.506,87.4998 694.5,87C 700.068,82.1058 699.735,77.7725 693.5,74C 687.167,73.6667 680.833,73.3333 674.5,73C 664.77,69.5265 661.27,62.6932 664,52.5C 666.022,47.98 669.189,44.6467 673.5,42.5 Z"/></g>
<g><path style="opacity:0.889" fill="#fefffe" d="M 1017.5,42.5 C 1021.17,42.5 1024.83,42.5 1028.5,42.5C 1028.33,54.1714 1028.5,65.8381 1029,77.5C 1033.72,88.6024 1041.56,91.4357 1052.5,86C 1055.23,83.3741 1057.06,80.2074 1058,76.5C 1058.5,65.1716 1058.67,53.8382 1058.5,42.5C 1062.17,42.5 1065.83,42.5 1069.5,42.5C 1069.9,55.885 1069.4,69.2183 1068,82.5C 1063.42,93.2127 1055.25,98.546 1043.5,98.5C 1029.81,98.2999 1021.31,91.6333 1018,78.5C 1017.5,66.5046 1017.33,54.5046 1017.5,42.5 Z"/></g>
<g><path style="opacity:0.88" fill="#fefffe" d="M 1092.5,42.5 C 1098.5,42.5 1104.5,42.5 1110.5,42.5C 1110.5,45.5 1110.5,48.5 1110.5,51.5C 1106.49,51.3345 1102.49,51.5012 1098.5,52C 1096.67,52.5 1095.5,53.6667 1095,55.5C 1094.5,69.496 1094.33,83.496 1094.5,97.5C 1090.83,97.5 1087.17,97.5 1083.5,97.5C 1083.33,82.4963 1083.5,67.4963 1084,52.5C 1085.26,47.7452 1088.09,44.4118 1092.5,42.5 Z"/></g>
<g><path style="opacity:0.934" fill="#fe0000" d="M 1116.5,77.5 C 1122.17,77.5 1127.83,77.5 1133.5,77.5C 1133.5,83.8333 1133.5,90.1667 1133.5,96.5C 1127.83,96.5 1122.17,96.5 1116.5,96.5C 1116.5,90.1667 1116.5,83.8333 1116.5,77.5 Z"/></g>
</svg>
